<svg xmlns="http://www.w3.org/2000/svg" xmlns:xlink="http://www.w3.org/1999/xlink" contentScriptType="text/ecmascript" width="192" viewBox="0 0 192 206.25" height="206.25" version="1.0"><defs><clipPath id="b"><path d="M 0.347656 0 L 191.652344 0 L 191.652344 205.503906 L 0.347656 205.503906 Z M 0.347656 0"/></clipPath><clipPath id="c"><path d="M 0.347656 153 L 138 153 L 138 205.503906 L 0.347656 205.503906 Z M 0.347656 153"/></clipPath><clipPath id="f"><path d="M 0.347656 8 L 131 8 L 131 52.503906 L 0.347656 52.503906 Z M 0.347656 8"/></clipPath><clipPath id="g"><path d="M -37.292969 -2.617188 L 141.882812 31.1875 L 131.90625 84.058594 L -47.269531 50.253906 Z M -37.292969 -2.617188"/></clipPath><clipPath id="h"><path d="M 141.558594 31.128906 L -37.617188 -2.679688 L -47.589844 50.191406 L 131.585938 84 Z M 141.558594 31.128906"/></clipPath><clipPath id="e"><path d="M0 0H138V53H0z"/></clipPath><clipPath id="i"><path d="M 53 167 L 191.652344 167 L 191.652344 205.503906 L 53 205.503906 Z M 53 167"/></clipPath><clipPath id="l"><path d="M 3 8 L 138.652344 8 L 138.652344 38.503906 L 3 38.503906 Z M 3 8"/></clipPath><clipPath id="m"><path d="M 6.621094 -1.828125 L 186.089844 30.40625 L 176.578125 83.363281 L -2.886719 51.128906 Z M 6.621094 -1.828125"/></clipPath><clipPath id="n"><path d="M 185.765625 30.347656 L 6.300781 -1.886719 L -3.210938 51.070312 L 176.253906 83.304688 Z M 185.765625 30.347656"/></clipPath><clipPath id="k"><path d="M0 0H139V39H0z"/></clipPath><clipPath id="o"><path d="M 100 157 L 191.652344 157 L 191.652344 205.503906 L 100 205.503906 Z M 100 157"/></clipPath><clipPath id="r"><path d="M 2 13 L 91.652344 13 L 91.652344 48.503906 L 2 48.503906 Z M 2 13"/></clipPath><clipPath id="s"><path d="M 1.765625 -2.699219 L 235.605469 16.765625 L 229.839844 86.023438 L -3.996094 66.558594 Z M 1.765625 -2.699219"/></clipPath><clipPath id="t"><path d="M 1.765625 -2.699219 L 235.605469 16.765625 L 229.839844 86.023438 L -3.996094 66.558594 Z M 1.765625 -2.699219"/></clipPath><clipPath id="q"><path d="M0 0H92V49H0z"/></clipPath><mask id="d"><g filter="url(#a)"><path fill-opacity=".31" d="M-19.2 -20.625H211.20000000000002V226.875H-19.2z"/></g></mask><mask id="j"><g filter="url(#a)"><path fill-opacity=".31" d="M-19.2 -20.625H211.20000000000002V226.875H-19.2z"/></g></mask><mask id="p"><g filter="url(#a)"><path fill-opacity=".31" d="M-19.2 -20.625H211.20000000000002V226.875H-19.2z"/></g></mask><filter x="0%" y="0%" width="100%" xmlns:xlink="http://www.w3.org/1999/xlink" xlink:type="simple" xlink:actuate="onLoad" height="100%" id="a" xlink:show="other"><feColorMatrix values="0 0 0 0 1 0 0 0 0 1 0 0 0 0 1 0 0 0 1 0" color-interpolation-filters="sRGB"/></filter></defs><g clip-path="url(#b)"><path fill="#FFF" d="M 0.347656 0 L 191.652344 0 L 191.652344 212.976562 L 0.347656 212.976562 Z M 0.347656 0"/><path fill="#FFF" d="M 0.347656 0 L 191.652344 0 L 191.652344 205.503906 L 0.347656 205.503906 Z M 0.347656 0"/><path fill="#99B8AA" d="M 0.347656 0 L 191.652344 0 L 191.652344 205.503906 L 0.347656 205.503906 Z M 0.347656 0"/></g><g clip-path="url(#c)"><g mask="url(#d)"><g><g clip-path="url(#e)" transform="translate(0 153)"><g clip-path="url(#f)"><g clip-path="url(#g)"><g clip-path="url(#h)"><path fill="#F4F4F4" d="M 56.492188 23.402344 C 49.792969 20.699219 43.027344 18.152344 36.207031 15.765625 C 15.007812 8.347656 -12.589844 2.027344 -31.09375 18.96875 C -36.652344 24.0625 -44.59375 37.714844 -39.578125 45.230469 C -34.652344 52.605469 -16.664062 52.460938 -8.742188 54.082031 C 17.023438 59.359375 42.808594 64.550781 68.609375 69.660156 C 80.359375 71.875 92.269531 72.980469 104.179688 73.9375 C 110.574219 74.453125 117.308594 76.960938 123.753906 75.675781 C 132.898438 73.847656 131.792969 66.402344 126.335938 60.277344 C 123.25 56.816406 119.199219 54.375 115.179688 52.046875 C 96.328125 41.132812 76.699219 31.554688 56.492188 23.402344 Z M 56.492188 23.402344"/></g></g></g></g></g></g></g><g clip-path="url(#i)"><g mask="url(#j)"><g><g clip-path="url(#k)" transform="translate(53 167)"><g clip-path="url(#l)"><g clip-path="url(#m)"><g clip-path="url(#n)"><path fill="#F4F4F4" d="M 100.632812 23.367188 C 93.910156 20.722656 87.125 18.238281 80.285156 15.910156 C 59.019531 8.679688 31.367188 2.597656 13.015625 19.707031 C 7.496094 24.847656 -0.324219 38.570312 4.757812 46.039062 C 9.75 53.371094 27.734375 53.066406 35.671875 54.621094 C 61.484375 59.671875 87.3125 64.636719 113.15625 69.519531 C 124.925781 71.632812 136.847656 72.628906 148.761719 73.484375 C 155.160156 73.945312 161.917969 76.394531 168.351562 75.050781 C 177.480469 73.140625 176.308594 65.707031 170.796875 59.628906 C 167.679688 56.195312 163.609375 53.789062 159.570312 51.496094 C 140.625 40.75 120.914062 31.34375 100.632812 23.367188 Z M 100.632812 23.367188"/></g></g></g></g></g></g></g><g clip-path="url(#o)"><g mask="url(#p)"><g><g clip-path="url(#q)" transform="translate(100 157)"><g clip-path="url(#r)"><g clip-path="url(#s)"><g clip-path="url(#t)"><path fill="#F4F4F4" d="M 109.933594 16.90625 C 119.171875 15.84375 128.433594 14.996094 137.710938 14.367188 C 166.550781 12.417969 202.953125 14.027344 220.089844 41.480469 C 225.238281 49.734375 230.40625 69.460938 221.605469 77.089844 C 212.964844 84.585938 190.703125 78.222656 180.324219 77.519531 C 146.550781 75.238281 112.789062 72.84375 79.03125 70.339844 C 63.695312 69.0625 48.546875 66.347656 33.445312 63.449219 C 25.335938 61.890625 16.121094 62.703125 8.570312 58.886719 C -2.148438 53.46875 1.777344 44.578125 10.652344 38.828125 C 15.664062 35.574219 21.527344 33.925781 27.308594 32.410156 C 54.4375 25.296875 82.070312 20.113281 109.933594 16.90625 Z M 109.933594 16.90625"/></g></g></g></g></g></g></g></svg>